<?xml version="1.0" encoding="utf-8" standalone="no"?>
<!DOCTYPE svg PUBLIC "-//W3C//DTD SVG 1.1//EN"
  "http://www.w3.org/Graphics/SVG/1.1/DTD/svg11.dtd">
<!-- Created with matplotlib (https://matplotlib.org/) -->
<svg height="262.19625pt" version="1.1" viewBox="0 0 382.603125 262.19625" width="382.603125pt" xmlns="http://www.w3.org/2000/svg" xmlns:xlink="http://www.w3.org/1999/xlink">
 <defs>
  <style type="text/css">
*{stroke-linecap:butt;stroke-linejoin:round;}
  </style>
 </defs>
 <g id="figure_1">
  <g id="patch_1">
   <path d="M 0 262.19625 
L 382.603125 262.19625 
L 382.603125 0 
L 0 0 
z
" style="fill:none;"/>
  </g>
  <g id="axes_1">
   <g id="patch_2">
    <path d="M 40.603125 224.64 
L 375.403125 224.64 
L 375.403125 7.2 
L 40.603125 7.2 
z
" style="fill:#ffffff;"/>
   </g>
   <g id="matplotlib.axis_1">
    <g id="xtick_1">
     <g id="line2d_1">
      <defs>
       <path d="M 0 0 
L 0 3.5 
" id="m161fc74496" style="stroke:#000000;stroke-width:0.8;"/>
      </defs>
      <g>
       <use style="stroke:#000000;stroke-width:0.8;" x="55.821307" xlink:href="#m161fc74496" y="224.64"/>
      </g>
     </g>
     <g id="text_1">
      <!-- 0 -->
      <defs>
       <path d="M 31.78125 66.40625 
Q 24.171875 66.40625 20.328125 58.90625 
Q 16.5 51.421875 16.5 36.375 
Q 16.5 21.390625 20.328125 13.890625 
Q 24.171875 6.390625 31.78125 6.390625 
Q 39.453125 6.390625 43.28125 13.890625 
Q 47.125 21.390625 47.125 36.375 
Q 47.125 51.421875 43.28125 58.90625 
Q 39.453125 66.40625 31.78125 66.40625 
z
M 31.78125 74.21875 
Q 44.046875 74.21875 50.515625 64.515625 
Q 56.984375 54.828125 56.984375 36.375 
Q 56.984375 17.96875 50.515625 8.265625 
Q 44.046875 -1.421875 31.78125 -1.421875 
Q 19.53125 -1.421875 13.0625 8.265625 
Q 6.59375 17.96875 6.59375 36.375 
Q 6.59375 54.828125 13.0625 64.515625 
Q 19.53125 74.21875 31.78125 74.21875 
z
" id="DejaVuSans-48"/>
      </defs>
      <g transform="translate(52.640057 239.238438)scale(0.1 -0.1)">
       <use xlink:href="#DejaVuSans-48"/>
      </g>
     </g>
    </g>
    <g id="xtick_2">
     <g id="line2d_2">
      <g>
       <use style="stroke:#000000;stroke-width:0.8;" x="93.885794" xlink:href="#m161fc74496" y="224.64"/>
      </g>
     </g>
     <g id="text_2">
      <!-- 250 -->
      <defs>
       <path d="M 19.1875 8.296875 
L 53.609375 8.296875 
L 53.609375 0 
L 7.328125 0 
L 7.328125 8.296875 
Q 12.9375 14.109375 22.625 23.890625 
Q 32.328125 33.6875 34.8125 36.53125 
Q 39.546875 41.84375 41.421875 45.53125 
Q 43.3125 49.21875 43.3125 52.78125 
Q 43.3125 58.59375 39.234375 62.25 
Q 35.15625 65.921875 28.609375 65.921875 
Q 23.96875 65.921875 18.8125 64.3125 
Q 13.671875 62.703125 7.8125 59.421875 
L 7.8125 69.390625 
Q 13.765625 71.78125 18.9375 73 
Q 24.125 74.21875 28.421875 74.21875 
Q 39.75 74.21875 46.484375 68.546875 
Q 53.21875 62.890625 53.21875 53.421875 
Q 53.21875 48.921875 51.53125 44.890625 
Q 49.859375 40.875 45.40625 35.40625 
Q 44.1875 33.984375 37.640625 27.21875 
Q 31.109375 20.453125 19.1875 8.296875 
z
" id="DejaVuSans-50"/>
       <path d="M 10.796875 72.90625 
L 49.515625 72.90625 
L 49.515625 64.59375 
L 19.828125 64.59375 
L 19.828125 46.734375 
Q 21.96875 47.46875 24.109375 47.828125 
Q 26.265625 48.1875 28.421875 48.1875 
Q 40.625 48.1875 47.75 41.5 
Q 54.890625 34.8125 54.890625 23.390625 
Q 54.890625 11.625 47.5625 5.09375 
Q 40.234375 -1.421875 26.90625 -1.421875 
Q 22.3125 -1.421875 17.546875 -0.640625 
Q 12.796875 0.140625 7.71875 1.703125 
L 7.71875 11.625 
Q 12.109375 9.234375 16.796875 8.0625 
Q 21.484375 6.890625 26.703125 6.890625 
Q 35.15625 6.890625 40.078125 11.328125 
Q 45.015625 15.765625 45.015625 23.390625 
Q 45.015625 31 40.078125 35.4375 
Q 35.15625 39.890625 26.703125 39.890625 
Q 22.75 39.890625 18.8125 39.015625 
Q 14.890625 38.140625 10.796875 36.28125 
z
" id="DejaVuSans-53"/>
      </defs>
      <g transform="translate(84.342044 239.238438)scale(0.1 -0.1)">
       <use xlink:href="#DejaVuSans-50"/>
       <use x="63.623047" xlink:href="#DejaVuSans-53"/>
       <use x="127.246094" xlink:href="#DejaVuSans-48"/>
      </g>
     </g>
    </g>
    <g id="xtick_3">
     <g id="line2d_3">
      <g>
       <use style="stroke:#000000;stroke-width:0.8;" x="131.95028" xlink:href="#m161fc74496" y="224.64"/>
      </g>
     </g>
     <g id="text_3">
      <!-- 500 -->
      <g transform="translate(122.40653 239.238438)scale(0.1 -0.1)">
       <use xlink:href="#DejaVuSans-53"/>
       <use x="63.623047" xlink:href="#DejaVuSans-48"/>
       <use x="127.246094" xlink:href="#DejaVuSans-48"/>
      </g>
     </g>
    </g>
    <g id="xtick_4">
     <g id="line2d_4">
      <g>
       <use style="stroke:#000000;stroke-width:0.8;" x="170.014767" xlink:href="#m161fc74496" y="224.64"/>
      </g>
     </g>
     <g id="text_4">
      <!-- 750 -->
      <defs>
       <path d="M 8.203125 72.90625 
L 55.078125 72.90625 
L 55.078125 68.703125 
L 28.609375 0 
L 18.3125 0 
L 43.21875 64.59375 
L 8.203125 64.59375 
z
" id="DejaVuSans-55"/>
      </defs>
      <g transform="translate(160.471017 239.238438)scale(0.1 -0.1)">
       <use xlink:href="#DejaVuSans-55"/>
       <use x="63.623047" xlink:href="#DejaVuSans-53"/>
       <use x="127.246094" xlink:href="#DejaVuSans-48"/>
      </g>
     </g>
    </g>
    <g id="xtick_5">
     <g id="line2d_5">
      <g>
       <use style="stroke:#000000;stroke-width:0.8;" x="208.079254" xlink:href="#m161fc74496" y="224.64"/>
      </g>
     </g>
     <g id="text_5">
      <!-- 1000 -->
      <defs>
       <path d="M 12.40625 8.296875 
L 28.515625 8.296875 
L 28.515625 63.921875 
L 10.984375 60.40625 
L 10.984375 69.390625 
L 28.421875 72.90625 
L 38.28125 72.90625 
L 38.28125 8.296875 
L 54.390625 8.296875 
L 54.390625 0 
L 12.40625 0 
z
" id="DejaVuSans-49"/>
      </defs>
      <g transform="translate(195.354254 239.238438)scale(0.1 -0.1)">
       <use xlink:href="#DejaVuSans-49"/>
       <use x="63.623047" xlink:href="#DejaVuSans-48"/>
       <use x="127.246094" xlink:href="#DejaVuSans-48"/>
       <use x="190.869141" xlink:href="#DejaVuSans-48"/>
      </g>
     </g>
    </g>
    <g id="xtick_6">
     <g id="line2d_6">
      <g>
       <use style="stroke:#000000;stroke-width:0.8;" x="246.143741" xlink:href="#m161fc74496" y="224.64"/>
      </g>
     </g>
     <g id="text_6">
      <!-- 1250 -->
      <g transform="translate(233.418741 239.238438)scale(0.1 -0.1)">
       <use xlink:href="#DejaVuSans-49"/>
       <use x="63.623047" xlink:href="#DejaVuSans-50"/>
       <use x="127.246094" xlink:href="#DejaVuSans-53"/>
       <use x="190.869141" xlink:href="#DejaVuSans-48"/>
      </g>
     </g>
    </g>
    <g id="xtick_7">
     <g id="line2d_7">
      <g>
       <use style="stroke:#000000;stroke-width:0.8;" x="284.208228" xlink:href="#m161fc74496" y="224.64"/>
      </g>
     </g>
     <g id="text_7">
      <!-- 1500 -->
      <g transform="translate(271.483228 239.238438)scale(0.1 -0.1)">
       <use xlink:href="#DejaVuSans-49"/>
       <use x="63.623047" xlink:href="#DejaVuSans-53"/>
       <use x="127.246094" xlink:href="#DejaVuSans-48"/>
       <use x="190.869141" xlink:href="#DejaVuSans-48"/>
      </g>
     </g>
    </g>
    <g id="xtick_8">
     <g id="line2d_8">
      <g>
       <use style="stroke:#000000;stroke-width:0.8;" x="322.272714" xlink:href="#m161fc74496" y="224.64"/>
      </g>
     </g>
     <g id="text_8">
      <!-- 1750 -->
      <g transform="translate(309.547714 239.238438)scale(0.1 -0.1)">
       <use xlink:href="#DejaVuSans-49"/>
       <use x="63.623047" xlink:href="#DejaVuSans-55"/>
       <use x="127.246094" xlink:href="#DejaVuSans-53"/>
       <use x="190.869141" xlink:href="#DejaVuSans-48"/>
      </g>
     </g>
    </g>
    <g id="xtick_9">
     <g id="line2d_9">
      <g>
       <use style="stroke:#000000;stroke-width:0.8;" x="360.337201" xlink:href="#m161fc74496" y="224.64"/>
      </g>
     </g>
     <g id="text_9">
      <!-- 2000 -->
      <g transform="translate(347.612201 239.238438)scale(0.1 -0.1)">
       <use xlink:href="#DejaVuSans-50"/>
       <use x="63.623047" xlink:href="#DejaVuSans-48"/>
       <use x="127.246094" xlink:href="#DejaVuSans-48"/>
       <use x="190.869141" xlink:href="#DejaVuSans-48"/>
      </g>
     </g>
    </g>
    <g id="text_10">
     <!-- Episode # -->
     <defs>
      <path d="M 9.8125 72.90625 
L 55.90625 72.90625 
L 55.90625 64.59375 
L 19.671875 64.59375 
L 19.671875 43.015625 
L 54.390625 43.015625 
L 54.390625 34.71875 
L 19.671875 34.71875 
L 19.671875 8.296875 
L 56.78125 8.296875 
L 56.78125 0 
L 9.8125 0 
z
" id="DejaVuSans-69"/>
      <path d="M 18.109375 8.203125 
L 18.109375 -20.796875 
L 9.078125 -20.796875 
L 9.078125 54.6875 
L 18.109375 54.6875 
L 18.109375 46.390625 
Q 20.953125 51.265625 25.265625 53.625 
Q 29.59375 56 35.59375 56 
Q 45.5625 56 51.78125 48.09375 
Q 58.015625 40.1875 58.015625 27.296875 
Q 58.015625 14.40625 51.78125 6.484375 
Q 45.5625 -1.421875 35.59375 -1.421875 
Q 29.59375 -1.421875 25.265625 0.953125 
Q 20.953125 3.328125 18.109375 8.203125 
z
M 48.6875 27.296875 
Q 48.6875 37.203125 44.609375 42.84375 
Q 40.53125 48.484375 33.40625 48.484375 
Q 26.265625 48.484375 22.1875 42.84375 
Q 18.109375 37.203125 18.109375 27.296875 
Q 18.109375 17.390625 22.1875 11.75 
Q 26.265625 6.109375 33.40625 6.109375 
Q 40.53125 6.109375 44.609375 11.75 
Q 48.6875 17.390625 48.6875 27.296875 
z
" id="DejaVuSans-112"/>
      <path d="M 9.421875 54.6875 
L 18.40625 54.6875 
L 18.40625 0 
L 9.421875 0 
z
M 9.421875 75.984375 
L 18.40625 75.984375 
L 18.40625 64.59375 
L 9.421875 64.59375 
z
" id="DejaVuSans-105"/>
      <path d="M 44.28125 53.078125 
L 44.28125 44.578125 
Q 40.484375 46.53125 36.375 47.5 
Q 32.28125 48.484375 27.875 48.484375 
Q 21.1875 48.484375 17.84375 46.4375 
Q 14.5 44.390625 14.5 40.28125 
Q 14.5 37.15625 16.890625 35.375 
Q 19.28125 33.59375 26.515625 31.984375 
L 29.59375 31.296875 
Q 39.15625 29.25 43.1875 25.515625 
Q 47.21875 21.78125 47.21875 15.09375 
Q 47.21875 7.46875 41.1875 3.015625 
Q 35.15625 -1.421875 24.609375 -1.421875 
Q 20.21875 -1.421875 15.453125 -0.5625 
Q 10.6875 0.296875 5.421875 2 
L 5.421875 11.28125 
Q 10.40625 8.6875 15.234375 7.390625 
Q 20.0625 6.109375 24.8125 6.109375 
Q 31.15625 6.109375 34.5625 8.28125 
Q 37.984375 10.453125 37.984375 14.40625 
Q 37.984375 18.0625 35.515625 20.015625 
Q 33.0625 21.96875 24.703125 23.78125 
L 21.578125 24.515625 
Q 13.234375 26.265625 9.515625 29.90625 
Q 5.8125 33.546875 5.8125 39.890625 
Q 5.8125 47.609375 11.28125 51.796875 
Q 16.75 56 26.8125 56 
Q 31.78125 56 36.171875 55.265625 
Q 40.578125 54.546875 44.28125 53.078125 
z
" id="DejaVuSans-115"/>
      <path d="M 30.609375 48.390625 
Q 23.390625 48.390625 19.1875 42.75 
Q 14.984375 37.109375 14.984375 27.296875 
Q 14.984375 17.484375 19.15625 11.84375 
Q 23.34375 6.203125 30.609375 6.203125 
Q 37.796875 6.203125 41.984375 11.859375 
Q 46.1875 17.53125 46.1875 27.296875 
Q 46.1875 37.015625 41.984375 42.703125 
Q 37.796875 48.390625 30.609375 48.390625 
z
M 30.609375 56 
Q 42.328125 56 49.015625 48.375 
Q 55.71875 40.765625 55.71875 27.296875 
Q 55.71875 13.875 49.015625 6.21875 
Q 42.328125 -1.421875 30.609375 -1.421875 
Q 18.84375 -1.421875 12.171875 6.21875 
Q 5.515625 13.875 5.515625 27.296875 
Q 5.515625 40.765625 12.171875 48.375 
Q 18.84375 56 30.609375 56 
z
" id="DejaVuSans-111"/>
      <path d="M 45.40625 46.390625 
L 45.40625 75.984375 
L 54.390625 75.984375 
L 54.390625 0 
L 45.40625 0 
L 45.40625 8.203125 
Q 42.578125 3.328125 38.25 0.953125 
Q 33.9375 -1.421875 27.875 -1.421875 
Q 17.96875 -1.421875 11.734375 6.484375 
Q 5.515625 14.40625 5.515625 27.296875 
Q 5.515625 40.1875 11.734375 48.09375 
Q 17.96875 56 27.875 56 
Q 33.9375 56 38.25 53.625 
Q 42.578125 51.265625 45.40625 46.390625 
z
M 14.796875 27.296875 
Q 14.796875 17.390625 18.875 11.75 
Q 22.953125 6.109375 30.078125 6.109375 
Q 37.203125 6.109375 41.296875 11.75 
Q 45.40625 17.390625 45.40625 27.296875 
Q 45.40625 37.203125 41.296875 42.84375 
Q 37.203125 48.484375 30.078125 48.484375 
Q 22.953125 48.484375 18.875 42.84375 
Q 14.796875 37.203125 14.796875 27.296875 
z
" id="DejaVuSans-100"/>
      <path d="M 56.203125 29.59375 
L 56.203125 25.203125 
L 14.890625 25.203125 
Q 15.484375 15.921875 20.484375 11.0625 
Q 25.484375 6.203125 34.421875 6.203125 
Q 39.59375 6.203125 44.453125 7.46875 
Q 49.3125 8.734375 54.109375 11.28125 
L 54.109375 2.78125 
Q 49.265625 0.734375 44.1875 -0.34375 
Q 39.109375 -1.421875 33.890625 -1.421875 
Q 20.796875 -1.421875 13.15625 6.1875 
Q 5.515625 13.8125 5.515625 26.8125 
Q 5.515625 40.234375 12.765625 48.109375 
Q 20.015625 56 32.328125 56 
Q 43.359375 56 49.78125 48.890625 
Q 56.203125 41.796875 56.203125 29.59375 
z
M 47.21875 32.234375 
Q 47.125 39.59375 43.09375 43.984375 
Q 39.0625 48.390625 32.421875 48.390625 
Q 24.90625 48.390625 20.390625 44.140625 
Q 15.875 39.890625 15.1875 32.171875 
z
" id="DejaVuSans-101"/>
      <path id="DejaVuSans-32"/>
      <path d="M 51.125 44 
L 36.921875 44 
L 32.8125 27.6875 
L 47.125 27.6875 
z
M 43.796875 71.78125 
L 38.71875 51.515625 
L 52.984375 51.515625 
L 58.109375 71.78125 
L 65.921875 71.78125 
L 60.890625 51.515625 
L 76.125 51.515625 
L 76.125 44 
L 58.984375 44 
L 54.984375 27.6875 
L 70.515625 27.6875 
L 70.515625 20.21875 
L 53.078125 20.21875 
L 48 0 
L 40.1875 0 
L 45.21875 20.21875 
L 30.90625 20.21875 
L 25.875 0 
L 18.015625 0 
L 23.09375 20.21875 
L 7.71875 20.21875 
L 7.71875 27.6875 
L 24.90625 27.6875 
L 29 44 
L 13.28125 44 
L 13.28125 51.515625 
L 30.90625 51.515625 
L 35.890625 71.78125 
z
" id="DejaVuSans-35"/>
     </defs>
     <g transform="translate(182.586719 252.916563)scale(0.1 -0.1)">
      <use xlink:href="#DejaVuSans-69"/>
      <use x="63.183594" xlink:href="#DejaVuSans-112"/>
      <use x="126.660156" xlink:href="#DejaVuSans-105"/>
      <use x="154.443359" xlink:href="#DejaVuSans-115"/>
      <use x="206.542969" xlink:href="#DejaVuSans-111"/>
      <use x="267.724609" xlink:href="#DejaVuSans-100"/>
      <use x="331.201172" xlink:href="#DejaVuSans-101"/>
      <use x="392.724609" xlink:href="#DejaVuSans-32"/>
      <use x="424.511719" xlink:href="#DejaVuSans-35"/>
     </g>
    </g>
   </g>
   <g id="matplotlib.axis_2">
    <g id="ytick_1">
     <g id="line2d_10">
      <defs>
       <path d="M 0 0 
L -3.5 0 
" id="mdd536d1dd6" style="stroke:#000000;stroke-width:0.8;"/>
      </defs>
      <g>
       <use style="stroke:#000000;stroke-width:0.8;" x="40.603125" xlink:href="#mdd536d1dd6" y="194.307461"/>
      </g>
     </g>
     <g id="text_11">
      <!-- 0 -->
      <g transform="translate(27.240625 198.10668)scale(0.1 -0.1)">
       <use xlink:href="#DejaVuSans-48"/>
      </g>
     </g>
    </g>
    <g id="ytick_2">
     <g id="line2d_11">
      <g>
       <use style="stroke:#000000;stroke-width:0.8;" x="40.603125" xlink:href="#mdd536d1dd6" y="160.225956"/>
      </g>
     </g>
     <g id="text_12">
      <!-- 5 -->
      <g transform="translate(27.240625 164.025175)scale(0.1 -0.1)">
       <use xlink:href="#DejaVuSans-53"/>
      </g>
     </g>
    </g>
    <g id="ytick_3">
     <g id="line2d_12">
      <g>
       <use style="stroke:#000000;stroke-width:0.8;" x="40.603125" xlink:href="#mdd536d1dd6" y="126.144451"/>
      </g>
     </g>
     <g id="text_13">
      <!-- 10 -->
      <g transform="translate(20.878125 129.94367)scale(0.1 -0.1)">
       <use xlink:href="#DejaVuSans-49"/>
       <use x="63.623047" xlink:href="#DejaVuSans-48"/>
      </g>
     </g>
    </g>
    <g id="ytick_4">
     <g id="line2d_13">
      <g>
       <use style="stroke:#000000;stroke-width:0.8;" x="40.603125" xlink:href="#mdd536d1dd6" y="92.062947"/>
      </g>
     </g>
     <g id="text_14">
      <!-- 15 -->
      <g transform="translate(20.878125 95.862165)scale(0.1 -0.1)">
       <use xlink:href="#DejaVuSans-49"/>
       <use x="63.623047" xlink:href="#DejaVuSans-53"/>
      </g>
     </g>
    </g>
    <g id="ytick_5">
     <g id="line2d_14">
      <g>
       <use style="stroke:#000000;stroke-width:0.8;" x="40.603125" xlink:href="#mdd536d1dd6" y="57.981442"/>
      </g>
     </g>
     <g id="text_15">
      <!-- 20 -->
      <g transform="translate(20.878125 61.780661)scale(0.1 -0.1)">
       <use xlink:href="#DejaVuSans-50"/>
       <use x="63.623047" xlink:href="#DejaVuSans-48"/>
      </g>
     </g>
    </g>
    <g id="ytick_6">
     <g id="line2d_15">
      <g>
       <use style="stroke:#000000;stroke-width:0.8;" x="40.603125" xlink:href="#mdd536d1dd6" y="23.899937"/>
      </g>
     </g>
     <g id="text_16">
      <!-- 25 -->
      <g transform="translate(20.878125 27.699156)scale(0.1 -0.1)">
       <use xlink:href="#DejaVuSans-50"/>
       <use x="63.623047" xlink:href="#DejaVuSans-53"/>
      </g>
     </g>
    </g>
    <g id="text_17">
     <!-- Score -->
     <defs>
      <path d="M 53.515625 70.515625 
L 53.515625 60.890625 
Q 47.90625 63.578125 42.921875 64.890625 
Q 37.9375 66.21875 33.296875 66.21875 
Q 25.25 66.21875 20.875 63.09375 
Q 16.5 59.96875 16.5 54.203125 
Q 16.5 49.359375 19.40625 46.890625 
Q 22.3125 44.4375 30.421875 42.921875 
L 36.375 41.703125 
Q 47.40625 39.59375 52.65625 34.296875 
Q 57.90625 29 57.90625 20.125 
Q 57.90625 9.515625 50.796875 4.046875 
Q 43.703125 -1.421875 29.984375 -1.421875 
Q 24.8125 -1.421875 18.96875 -0.25 
Q 13.140625 0.921875 6.890625 3.21875 
L 6.890625 13.375 
Q 12.890625 10.015625 18.65625 8.296875 
Q 24.421875 6.59375 29.984375 6.59375 
Q 38.421875 6.59375 43.015625 9.90625 
Q 47.609375 13.234375 47.609375 19.390625 
Q 47.609375 24.75 44.3125 27.78125 
Q 41.015625 30.8125 33.5 32.328125 
L 27.484375 33.5 
Q 16.453125 35.6875 11.515625 40.375 
Q 6.59375 45.0625 6.59375 53.421875 
Q 6.59375 63.09375 13.40625 68.65625 
Q 20.21875 74.21875 32.171875 74.21875 
Q 37.3125 74.21875 42.625 73.28125 
Q 47.953125 72.359375 53.515625 70.515625 
z
" id="DejaVuSans-83"/>
      <path d="M 48.78125 52.59375 
L 48.78125 44.1875 
Q 44.96875 46.296875 41.140625 47.34375 
Q 37.3125 48.390625 33.40625 48.390625 
Q 24.65625 48.390625 19.8125 42.84375 
Q 14.984375 37.3125 14.984375 27.296875 
Q 14.984375 17.28125 19.8125 11.734375 
Q 24.65625 6.203125 33.40625 6.203125 
Q 37.3125 6.203125 41.140625 7.25 
Q 44.96875 8.296875 48.78125 10.40625 
L 48.78125 2.09375 
Q 45.015625 0.34375 40.984375 -0.53125 
Q 36.96875 -1.421875 32.421875 -1.421875 
Q 20.0625 -1.421875 12.78125 6.34375 
Q 5.515625 14.109375 5.515625 27.296875 
Q 5.515625 40.671875 12.859375 48.328125 
Q 20.21875 56 33.015625 56 
Q 37.15625 56 41.109375 55.140625 
Q 45.0625 54.296875 48.78125 52.59375 
z
" id="DejaVuSans-99"/>
      <path d="M 41.109375 46.296875 
Q 39.59375 47.171875 37.8125 47.578125 
Q 36.03125 48 33.890625 48 
Q 26.265625 48 22.1875 43.046875 
Q 18.109375 38.09375 18.109375 28.8125 
L 18.109375 0 
L 9.078125 0 
L 9.078125 54.6875 
L 18.109375 54.6875 
L 18.109375 46.1875 
Q 20.953125 51.171875 25.484375 53.578125 
Q 30.03125 56 36.53125 56 
Q 37.453125 56 38.578125 55.875 
Q 39.703125 55.765625 41.0625 55.515625 
z
" id="DejaVuSans-114"/>
     </defs>
     <g transform="translate(14.798438 129.922344)rotate(-90)scale(0.1 -0.1)">
      <use xlink:href="#DejaVuSans-83"/>
      <use x="63.476562" xlink:href="#DejaVuSans-99"/>
      <use x="118.457031" xlink:href="#DejaVuSans-111"/>
      <use x="179.638672" xlink:href="#DejaVuSans-114"/>
      <use x="218.501953" xlink:href="#DejaVuSans-101"/>
     </g>
    </g>
   </g>
   <g id="line2d_16">
    <path clip-path="url(#p514bcb67ea)" d="M 55.821307 194.307461 
L 55.973565 187.49116 
L 56.125823 187.49116 
L 56.582597 207.940063 
L 56.887112 187.49116 
L 57.03937 180.674859 
L 57.191628 187.49116 
L 57.343886 187.49116 
L 57.496144 180.674859 
L 57.648402 207.940063 
L 57.80066 180.674859 
L 57.952918 201.123762 
L 58.105176 194.307461 
L 58.56195 194.307461 
L 58.714208 201.123762 
L 58.866466 187.49116 
L 59.018724 194.307461 
L 59.932271 194.307461 
L 60.084529 187.49116 
L 60.236787 194.307461 
L 60.693561 194.307461 
L 60.845819 187.49116 
L 60.998077 187.49116 
L 61.150335 201.123762 
L 61.302593 194.307461 
L 61.454851 207.940063 
L 61.607109 201.123762 
L 61.759367 167.042257 
L 61.911625 187.49116 
L 62.063883 187.49116 
L 62.216141 194.307461 
L 62.368399 180.674859 
L 62.520656 194.307461 
L 62.672914 180.674859 
L 62.825172 194.307461 
L 62.97743 187.49116 
L 63.129688 194.307461 
L 63.281946 194.307461 
L 63.434204 173.858558 
L 63.586462 201.123762 
L 63.890978 187.49116 
L 64.043236 201.123762 
L 64.195494 187.49116 
L 64.347752 201.123762 
L 64.50001 194.307461 
L 64.652268 167.042257 
L 64.804526 194.307461 
L 65.109042 167.042257 
L 65.2613 194.307461 
L 65.413557 173.858558 
L 65.565815 187.49116 
L 65.718073 187.49116 
L 65.870331 201.123762 
L 66.022589 173.858558 
L 66.174847 167.042257 
L 66.327105 187.49116 
L 66.479363 180.674859 
L 66.631621 214.756364 
L 66.936137 173.858558 
L 67.088395 173.858558 
L 67.392911 207.940063 
L 67.545169 194.307461 
L 67.849685 194.307461 
L 68.154201 167.042257 
L 68.458716 194.307461 
L 68.610974 194.307461 
L 68.763232 187.49116 
L 68.91549 187.49116 
L 69.067748 201.123762 
L 69.220006 180.674859 
L 69.372264 194.307461 
L 69.524522 173.858558 
L 69.67678 201.123762 
L 69.829038 194.307461 
L 70.133554 194.307461 
L 70.43807 180.674859 
L 70.590328 180.674859 
L 70.742586 187.49116 
L 70.894844 173.858558 
L 71.047102 180.674859 
L 71.199359 180.674859 
L 71.351617 173.858558 
L 71.503875 153.409655 
L 71.808391 194.307461 
L 71.960649 194.307461 
L 72.265165 173.858558 
L 72.569681 173.858558 
L 72.721939 180.674859 
L 72.874197 160.225956 
L 73.026455 173.858558 
L 73.178713 167.042257 
L 73.330971 167.042257 
L 73.483229 132.960752 
L 73.787745 180.674859 
L 73.940003 146.593354 
L 74.09226 180.674859 
L 74.244518 167.042257 
L 74.396776 187.49116 
L 74.549034 180.674859 
L 74.701292 187.49116 
L 74.85355 153.409655 
L 75.005808 187.49116 
L 75.158066 187.49116 
L 75.310324 173.858558 
L 75.462582 173.858558 
L 75.61484 160.225956 
L 75.767098 160.225956 
L 75.919356 167.042257 
L 76.071614 180.674859 
L 76.223872 146.593354 
L 76.528388 180.674859 
L 76.680646 119.32815 
L 76.832904 173.858558 
L 77.289677 173.858558 
L 77.441935 126.144451 
L 77.594193 180.674859 
L 77.746451 139.777053 
L 77.898709 146.593354 
L 78.050967 132.960752 
L 78.355483 187.49116 
L 78.507741 146.593354 
L 78.659999 187.49116 
L 78.964515 167.042257 
L 79.116773 180.674859 
L 79.269031 139.777053 
L 79.421289 180.674859 
L 79.573547 160.225956 
L 79.725805 180.674859 
L 79.878062 153.409655 
L 80.03032 167.042257 
L 80.182578 126.144451 
L 80.334836 146.593354 
L 80.487094 187.49116 
L 80.639352 132.960752 
L 80.79161 167.042257 
L 80.943868 153.409655 
L 81.096126 194.307461 
L 81.400642 139.777053 
L 81.5529 146.593354 
L 81.705158 167.042257 
L 81.857416 139.777053 
L 82.009674 146.593354 
L 82.31419 187.49116 
L 82.618706 126.144451 
L 82.770963 167.042257 
L 82.923221 153.409655 
L 83.075479 153.409655 
L 83.227737 180.674859 
L 83.379995 132.960752 
L 83.532253 167.042257 
L 83.684511 132.960752 
L 83.836769 132.960752 
L 84.141285 153.409655 
L 84.293543 187.49116 
L 84.598059 132.960752 
L 84.750317 160.225956 
L 84.902575 160.225956 
L 85.054833 180.674859 
L 85.511607 132.960752 
L 85.816122 167.042257 
L 85.96838 132.960752 
L 86.120638 126.144451 
L 86.425154 153.409655 
L 86.577412 132.960752 
L 86.72967 153.409655 
L 86.881928 153.409655 
L 87.186444 173.858558 
L 87.338702 105.695549 
L 87.49096 153.409655 
L 87.643218 139.777053 
L 87.795476 146.593354 
L 87.947734 98.879248 
L 88.099992 167.042257 
L 88.25225 126.144451 
L 88.404508 160.225956 
L 88.556765 139.777053 
L 88.709023 160.225956 
L 88.861281 153.409655 
L 89.013539 173.858558 
L 89.165797 139.777053 
L 89.318055 132.960752 
L 89.470313 112.51185 
L 89.622571 126.144451 
L 89.774829 160.225956 
L 89.927087 146.593354 
L 90.079345 146.593354 
L 90.231603 153.409655 
L 90.383861 146.593354 
L 90.536119 132.960752 
L 90.688377 194.307461 
L 90.840635 153.409655 
L 90.992893 160.225956 
L 91.145151 132.960752 
L 91.449666 167.042257 
L 91.601924 112.51185 
L 91.754182 160.225956 
L 91.90644 160.225956 
L 92.058698 153.409655 
L 92.210956 126.144451 
L 92.363214 153.409655 
L 92.515472 126.144451 
L 92.819988 160.225956 
L 93.276762 112.51185 
L 93.42902 126.144451 
L 93.581278 160.225956 
L 93.733536 153.409655 
L 93.885794 105.695549 
L 94.038052 167.042257 
L 94.19031 167.042257 
L 94.342567 132.960752 
L 94.494825 126.144451 
L 94.647083 132.960752 
L 94.799341 126.144451 
L 94.951599 98.879248 
L 95.103857 160.225956 
L 95.256115 153.409655 
L 95.560631 112.51185 
L 95.712889 132.960752 
L 96.017405 132.960752 
L 96.169663 126.144451 
L 96.321921 153.409655 
L 96.474179 160.225956 
L 96.778695 105.695549 
L 96.930953 160.225956 
L 97.08321 160.225956 
L 97.235468 119.32815 
L 97.539984 146.593354 
L 97.8445 85.246646 
L 97.996758 132.960752 
L 98.149016 139.777053 
L 98.60579 173.858558 
L 98.758048 146.593354 
L 98.910306 167.042257 
L 99.062564 119.32815 
L 99.214822 126.144451 
L 99.519338 167.042257 
L 99.671596 85.246646 
L 99.823854 126.144451 
L 100.128369 112.51185 
L 100.280627 119.32815 
L 100.737401 160.225956 
L 100.889659 105.695549 
L 101.041917 153.409655 
L 101.194175 139.777053 
L 101.346433 139.777053 
L 101.498691 132.960752 
L 101.803207 187.49116 
L 101.955465 85.246646 
L 102.107723 167.042257 
L 102.259981 98.879248 
L 102.412239 112.51185 
L 102.564497 160.225956 
L 102.716755 167.042257 
L 102.869012 85.246646 
L 103.02127 112.51185 
L 103.173528 119.32815 
L 103.325786 153.409655 
L 103.478044 160.225956 
L 103.78256 112.51185 
L 103.934818 132.960752 
L 104.087076 132.960752 
L 104.239334 146.593354 
L 104.54385 112.51185 
L 104.696108 167.042257 
L 105.000624 57.981442 
L 105.152882 167.042257 
L 105.30514 78.430345 
L 105.457398 194.307461 
L 105.761913 105.695549 
L 106.066429 167.042257 
L 106.218687 153.409655 
L 106.370945 160.225956 
L 106.523203 139.777053 
L 106.675461 160.225956 
L 106.827719 112.51185 
L 106.979977 167.042257 
L 107.132235 105.695549 
L 107.284493 160.225956 
L 107.436751 85.246646 
L 107.741267 153.409655 
L 107.893525 126.144451 
L 108.198041 153.409655 
L 108.502557 119.32815 
L 108.654814 98.879248 
L 108.807072 126.144451 
L 109.263846 146.593354 
L 109.416104 160.225956 
L 109.568362 119.32815 
L 109.72062 167.042257 
L 109.872878 167.042257 
L 110.025136 78.430345 
L 110.177394 119.32815 
L 110.329652 112.51185 
L 110.48191 146.593354 
L 110.634168 105.695549 
L 110.786426 119.32815 
L 110.938684 85.246646 
L 111.090942 160.225956 
L 111.2432 112.51185 
L 111.395458 119.32815 
L 111.547715 78.430345 
L 111.699973 160.225956 
L 111.852231 153.409655 
L 112.004489 126.144451 
L 112.156747 119.32815 
L 112.309005 173.858558 
L 112.613521 78.430345 
L 112.765779 112.51185 
L 112.918037 98.879248 
L 113.070295 167.042257 
L 113.222553 132.960752 
L 113.374811 132.960752 
L 113.527069 160.225956 
L 113.679327 64.797743 
L 113.831585 160.225956 
L 113.983843 112.51185 
L 114.136101 146.593354 
L 114.288359 146.593354 
L 114.440616 132.960752 
L 114.592874 180.674859 
L 114.745132 153.409655 
L 114.89739 173.858558 
L 115.049648 112.51185 
L 115.201906 132.960752 
L 115.354164 92.062947 
L 115.506422 85.246646 
L 115.65868 146.593354 
L 115.810938 85.246646 
L 115.963196 160.225956 
L 116.115454 126.144451 
L 116.267712 160.225956 
L 116.41997 153.409655 
L 116.572228 112.51185 
L 116.724486 132.960752 
L 116.876744 78.430345 
L 117.333517 153.409655 
L 117.485775 132.960752 
L 117.638033 146.593354 
L 117.790291 105.695549 
L 118.094807 105.695549 
L 118.247065 146.593354 
L 118.399323 57.981442 
L 118.551581 126.144451 
L 118.703839 92.062947 
L 118.856097 119.32815 
L 119.008355 92.062947 
L 119.160613 139.777053 
L 119.312871 92.062947 
L 119.617387 105.695549 
L 119.769645 119.32815 
L 119.921903 105.695549 
L 120.074161 132.960752 
L 120.226418 180.674859 
L 120.530934 78.430345 
L 120.683192 167.042257 
L 120.83545 98.879248 
L 120.987708 153.409655 
L 121.139966 112.51185 
L 121.292224 139.777053 
L 121.444482 85.246646 
L 121.59674 78.430345 
L 121.901256 132.960752 
L 122.053514 92.062947 
L 122.205772 105.695549 
L 122.35803 173.858558 
L 122.510288 105.695549 
L 122.662546 139.777053 
L 122.814804 126.144451 
L 122.967062 146.593354 
L 123.271577 98.879248 
L 123.423835 112.51185 
L 123.576093 85.246646 
L 123.728351 160.225956 
L 123.880609 173.858558 
L 124.032867 112.51185 
L 124.185125 146.593354 
L 124.337383 119.32815 
L 124.641899 105.695549 
L 124.794157 105.695549 
L 124.946415 85.246646 
L 125.098673 139.777053 
L 125.250931 132.960752 
L 125.403189 85.246646 
L 125.555447 98.879248 
L 125.707705 98.879248 
L 125.859963 119.32815 
L 126.01222 119.32815 
L 126.164478 112.51185 
L 126.316736 78.430345 
L 126.468994 146.593354 
L 126.621252 112.51185 
L 126.925768 112.51185 
L 127.078026 78.430345 
L 127.230284 71.614044 
L 127.382542 132.960752 
L 127.687058 64.797743 
L 127.839316 64.797743 
L 127.991574 92.062947 
L 128.143832 180.674859 
L 128.29609 105.695549 
L 128.448348 126.144451 
L 128.600606 78.430345 
L 128.752864 85.246646 
L 128.905121 112.51185 
L 129.057379 167.042257 
L 129.209637 132.960752 
L 129.361895 146.593354 
L 129.666411 119.32815 
L 129.970927 92.062947 
L 130.123185 98.879248 
L 130.275443 98.879248 
L 130.427701 132.960752 
L 130.579959 92.062947 
L 130.732217 146.593354 
L 130.884475 119.32815 
L 131.036733 126.144451 
L 131.188991 92.062947 
L 131.341249 105.695549 
L 131.493507 139.777053 
L 131.645765 57.981442 
L 131.798022 146.593354 
L 131.95028 98.879248 
L 132.407054 139.777053 
L 132.559312 139.777053 
L 132.863828 57.981442 
L 133.016086 85.246646 
L 133.168344 153.409655 
L 133.320602 85.246646 
L 133.47286 105.695549 
L 133.625118 71.614044 
L 133.777376 85.246646 
L 133.929634 119.32815 
L 134.23415 98.879248 
L 134.386408 187.49116 
L 134.538665 92.062947 
L 134.690923 153.409655 
L 134.843181 112.51185 
L 134.995439 139.777053 
L 135.147697 64.797743 
L 135.299955 71.614044 
L 135.452213 85.246646 
L 135.604471 126.144451 
L 135.756729 112.51185 
L 135.908987 126.144451 
L 136.061245 105.695549 
L 136.213503 126.144451 
L 136.365761 98.879248 
L 136.518019 132.960752 
L 136.670277 92.062947 
L 136.822535 105.695549 
L 136.974793 92.062947 
L 137.127051 132.960752 
L 137.431566 85.246646 
L 137.583824 85.246646 
L 137.88834 51.165141 
L 138.040598 71.614044 
L 138.192856 146.593354 
L 138.497372 105.695549 
L 138.64963 119.32815 
L 138.801888 78.430345 
L 138.954146 105.695549 
L 139.106404 78.430345 
L 139.258662 132.960752 
L 139.41092 132.960752 
L 139.563178 105.695549 
L 139.715436 126.144451 
L 139.867694 85.246646 
L 140.17221 112.51185 
L 140.324467 98.879248 
L 140.476725 126.144451 
L 140.628983 105.695549 
L 140.781241 132.960752 
L 140.933499 98.879248 
L 141.085757 98.879248 
L 141.390273 112.51185 
L 141.542531 126.144451 
L 141.694789 85.246646 
L 141.847047 98.879248 
L 141.999305 126.144451 
L 142.303821 85.246646 
L 142.456079 112.51185 
L 142.608337 167.042257 
L 142.760595 112.51185 
L 142.912853 132.960752 
L 143.065111 92.062947 
L 143.369626 126.144451 
L 143.521884 132.960752 
L 143.674142 92.062947 
L 143.8264 112.51185 
L 143.978658 78.430345 
L 144.283174 126.144451 
L 144.58769 57.981442 
L 144.739948 153.409655 
L 144.892206 153.409655 
L 145.044464 78.430345 
L 145.196722 98.879248 
L 145.34898 85.246646 
L 145.501238 132.960752 
L 145.805754 78.430345 
L 145.958012 64.797743 
L 146.110269 146.593354 
L 146.262527 98.879248 
L 146.414785 105.695549 
L 146.567043 57.981442 
L 146.719301 98.879248 
L 146.871559 71.614044 
L 147.023817 119.32815 
L 147.176075 119.32815 
L 147.480591 98.879248 
L 147.632849 126.144451 
L 147.937365 71.614044 
L 148.089623 78.430345 
L 148.241881 71.614044 
L 148.546397 126.144451 
L 148.698655 160.225956 
L 148.850913 92.062947 
L 149.00317 98.879248 
L 149.155428 98.879248 
L 149.307686 119.32815 
L 149.459944 78.430345 
L 149.612202 78.430345 
L 149.76446 85.246646 
L 149.916718 98.879248 
L 150.068976 126.144451 
L 150.221234 112.51185 
L 150.373492 78.430345 
L 150.52575 92.062947 
L 150.678008 85.246646 
L 150.830266 132.960752 
L 150.982524 85.246646 
L 151.134782 92.062947 
L 151.28704 78.430345 
L 151.439298 167.042257 
L 151.591556 119.32815 
L 151.743814 194.307461 
L 152.048329 98.879248 
L 152.200587 85.246646 
L 152.352845 126.144451 
L 152.505103 105.695549 
L 152.657361 57.981442 
L 152.809619 98.879248 
L 152.961877 78.430345 
L 153.114135 187.49116 
L 153.266393 85.246646 
L 153.570909 85.246646 
L 153.875425 57.981442 
L 154.027683 126.144451 
L 154.179941 132.960752 
L 154.332199 132.960752 
L 154.636715 85.246646 
L 154.788972 126.144451 
L 154.94123 98.879248 
L 155.093488 132.960752 
L 155.245746 64.797743 
L 155.398004 71.614044 
L 155.550262 119.32815 
L 155.70252 119.32815 
L 155.854778 64.797743 
L 156.159294 98.879248 
L 156.46381 71.614044 
L 156.616068 44.34884 
L 156.768326 57.981442 
L 156.920584 146.593354 
L 157.072842 92.062947 
L 157.2251 119.32815 
L 157.377358 112.51185 
L 157.834131 57.981442 
L 158.138647 126.144451 
L 158.290905 64.797743 
L 158.443163 85.246646 
L 158.595421 139.777053 
L 158.747679 64.797743 
L 158.899937 126.144451 
L 159.052195 92.062947 
L 159.356711 105.695549 
L 159.508969 98.879248 
L 159.661227 85.246646 
L 159.813485 98.879248 
L 159.965743 92.062947 
L 160.270259 64.797743 
L 160.574774 119.32815 
L 160.727032 64.797743 
L 160.87929 153.409655 
L 161.031548 78.430345 
L 161.183806 139.777053 
L 161.792838 85.246646 
L 161.945096 139.777053 
L 162.097354 98.879248 
L 162.249612 132.960752 
L 162.554128 57.981442 
L 162.706386 132.960752 
L 162.858644 119.32815 
L 163.010902 78.430345 
L 163.16316 92.062947 
L 163.315418 71.614044 
L 163.467675 92.062947 
L 163.619933 85.246646 
L 163.772191 71.614044 
L 163.924449 98.879248 
L 164.076707 78.430345 
L 164.228965 105.695549 
L 164.381223 85.246646 
L 164.533481 119.32815 
L 164.685739 78.430345 
L 164.837997 98.879248 
L 164.990255 92.062947 
L 165.142513 78.430345 
L 165.294771 37.532539 
L 165.599287 132.960752 
L 165.751545 85.246646 
L 165.903803 139.777053 
L 166.056061 51.165141 
L 166.208319 105.695549 
L 166.360576 85.246646 
L 166.512834 98.879248 
L 166.665092 139.777053 
L 166.81735 71.614044 
L 166.969608 85.246646 
L 167.121866 153.409655 
L 167.274124 85.246646 
L 167.57864 146.593354 
L 167.730898 126.144451 
L 167.883156 132.960752 
L 168.187672 92.062947 
L 168.33993 105.695549 
L 168.492188 98.879248 
L 168.796704 139.777053 
L 168.948962 85.246646 
L 169.10122 105.695549 
L 169.253477 98.879248 
L 169.405735 132.960752 
L 169.557993 78.430345 
L 169.710251 71.614044 
L 169.862509 126.144451 
L 170.014767 132.960752 
L 170.167025 78.430345 
L 170.319283 132.960752 
L 170.471541 98.879248 
L 170.623799 92.062947 
L 170.776057 105.695549 
L 170.928315 132.960752 
L 171.080573 98.879248 
L 171.232831 98.879248 
L 171.385089 112.51185 
L 171.537347 64.797743 
L 171.689605 64.797743 
L 171.841863 112.51185 
L 171.99412 98.879248 
L 172.146378 105.695549 
L 172.298636 153.409655 
L 172.450894 71.614044 
L 172.603152 112.51185 
L 172.75541 85.246646 
L 172.907668 126.144451 
L 173.059926 105.695549 
L 173.212184 139.777053 
L 173.364442 64.797743 
L 173.5167 132.960752 
L 173.668958 146.593354 
L 173.821216 112.51185 
L 173.973474 112.51185 
L 174.125732 139.777053 
L 174.27799 51.165141 
L 174.430248 85.246646 
L 174.582506 78.430345 
L 174.734764 30.716238 
L 174.887021 71.614044 
L 175.039279 167.042257 
L 175.191537 92.062947 
L 175.343795 78.430345 
L 175.496053 112.51185 
L 175.800569 98.879248 
L 175.952827 85.246646 
L 176.105085 112.51185 
L 176.257343 37.532539 
L 176.409601 105.695549 
L 176.714117 139.777053 
L 176.866375 98.879248 
L 177.018633 112.51185 
L 177.170891 85.246646 
L 177.323149 78.430345 
L 177.475407 105.695549 
L 177.627665 64.797743 
L 177.93218 98.879248 
L 178.084438 64.797743 
L 178.236696 105.695549 
L 178.541212 71.614044 
L 178.69347 126.144451 
L 178.845728 112.51185 
L 178.997986 85.246646 
L 179.150244 85.246646 
L 179.302502 105.695549 
L 179.45476 71.614044 
L 179.607018 105.695549 
L 179.911534 92.062947 
L 180.063792 112.51185 
L 180.21605 92.062947 
L 180.368308 30.716238 
L 180.672823 132.960752 
L 180.977339 57.981442 
L 181.129597 57.981442 
L 181.281855 37.532539 
L 181.434113 126.144451 
L 181.586371 126.144451 
L 181.890887 71.614044 
L 182.043145 57.981442 
L 182.347661 71.614044 
L 182.499919 146.593354 
L 182.652177 85.246646 
L 182.804435 126.144451 
L 182.956693 71.614044 
L 183.108951 119.32815 
L 183.413467 44.34884 
L 184.022498 119.32815 
L 184.174756 57.981442 
L 184.327014 98.879248 
L 184.479272 98.879248 
L 184.63153 78.430345 
L 184.783788 30.716238 
L 184.936046 92.062947 
L 185.088304 98.879248 
L 185.240562 112.51185 
L 185.545078 64.797743 
L 185.849594 126.144451 
L 186.001852 64.797743 
L 186.15411 85.246646 
L 186.306368 64.797743 
L 186.458625 85.246646 
L 186.610883 51.165141 
L 186.763141 105.695549 
L 186.915399 119.32815 
L 187.067657 51.165141 
L 187.372173 105.695549 
L 187.524431 98.879248 
L 187.676689 71.614044 
L 187.828947 112.51185 
L 187.981205 78.430345 
L 188.133463 71.614044 
L 188.285721 98.879248 
L 188.437979 64.797743 
L 188.742495 132.960752 
L 188.894753 126.144451 
L 189.047011 132.960752 
L 189.351526 71.614044 
L 189.656042 98.879248 
L 189.960558 78.430345 
L 190.112816 126.144451 
L 190.265074 105.695549 
L 190.417332 139.777053 
L 190.56959 64.797743 
L 190.874106 98.879248 
L 191.026364 92.062947 
L 191.178622 119.32815 
L 191.33088 85.246646 
L 191.483138 105.695549 
L 191.787654 78.430345 
L 191.939912 85.246646 
L 192.09217 78.430345 
L 192.244427 112.51185 
L 192.396685 85.246646 
L 192.548943 139.777053 
L 192.701201 85.246646 
L 192.853459 92.062947 
L 193.005717 119.32815 
L 193.157975 105.695549 
L 193.310233 78.430345 
L 193.462491 126.144451 
L 193.614749 71.614044 
L 193.919265 112.51185 
L 194.071523 92.062947 
L 194.223781 98.879248 
L 194.376039 85.246646 
L 194.528297 44.34884 
L 194.680555 105.695549 
L 194.832813 30.716238 
L 194.985071 139.777053 
L 195.137328 119.32815 
L 195.289586 119.32815 
L 195.594102 64.797743 
L 195.74636 92.062947 
L 195.898618 92.062947 
L 196.050876 98.879248 
L 196.203134 64.797743 
L 196.355392 92.062947 
L 196.50765 64.797743 
L 196.812166 92.062947 
L 196.964424 85.246646 
L 197.116682 71.614044 
L 197.26894 71.614044 
L 197.421198 64.797743 
L 197.725714 119.32815 
L 197.877972 57.981442 
L 198.030229 57.981442 
L 198.182487 112.51185 
L 198.334745 71.614044 
L 198.487003 71.614044 
L 198.639261 57.981442 
L 198.791519 98.879248 
L 199.096035 71.614044 
L 199.248293 57.981442 
L 199.400551 153.409655 
L 199.705067 37.532539 
L 199.857325 57.981442 
L 200.009583 105.695549 
L 200.161841 98.879248 
L 200.314099 98.879248 
L 200.466357 85.246646 
L 200.618615 167.042257 
L 200.92313 51.165141 
L 201.075388 64.797743 
L 201.227646 119.32815 
L 201.379904 119.32815 
L 201.532162 139.777053 
L 201.68442 85.246646 
L 201.836678 71.614044 
L 201.988936 105.695549 
L 202.141194 57.981442 
L 202.293452 105.695549 
L 202.44571 112.51185 
L 202.597968 51.165141 
L 202.750226 92.062947 
L 202.902484 78.430345 
L 203.054742 98.879248 
L 203.207 44.34884 
L 203.359258 105.695549 
L 203.511516 44.34884 
L 203.663774 112.51185 
L 203.816031 57.981442 
L 203.968289 146.593354 
L 204.272805 57.981442 
L 204.425063 167.042257 
L 204.881837 37.532539 
L 205.034095 23.899937 
L 205.338611 126.144451 
L 205.490869 146.593354 
L 205.643127 71.614044 
L 205.795385 57.981442 
L 205.947643 64.797743 
L 206.099901 98.879248 
L 206.252159 85.246646 
L 206.404417 57.981442 
L 206.556675 126.144451 
L 206.708932 126.144451 
L 206.86119 78.430345 
L 207.165706 126.144451 
L 207.317964 78.430345 
L 207.470222 98.879248 
L 207.62248 44.34884 
L 207.774738 71.614044 
L 207.926996 132.960752 
L 208.079254 92.062947 
L 208.231512 92.062947 
L 208.536028 44.34884 
L 208.840544 105.695549 
L 208.992802 71.614044 
L 209.14506 98.879248 
L 209.297318 44.34884 
L 209.449575 85.246646 
L 209.601833 44.34884 
L 209.754091 64.797743 
L 209.906349 64.797743 
L 210.058607 92.062947 
L 210.210865 201.123762 
L 210.363123 105.695549 
L 210.667639 126.144451 
L 210.819897 85.246646 
L 210.972155 112.51185 
L 211.124413 64.797743 
L 211.428929 112.51185 
L 211.581187 180.674859 
L 211.733445 71.614044 
L 211.885703 64.797743 
L 212.037961 194.307461 
L 212.190219 64.797743 
L 212.342476 30.716238 
L 212.646992 105.695549 
L 212.79925 132.960752 
L 213.103766 44.34884 
L 213.256024 92.062947 
L 213.408282 98.879248 
L 213.56054 126.144451 
L 213.712798 71.614044 
L 214.017314 119.32815 
L 214.169572 78.430345 
L 214.32183 78.430345 
L 214.474088 98.879248 
L 214.626346 78.430345 
L 214.778604 146.593354 
L 214.930862 139.777053 
L 215.235377 64.797743 
L 215.387635 71.614044 
L 215.539893 71.614044 
L 215.692151 64.797743 
L 215.996667 126.144451 
L 216.301183 85.246646 
L 216.453441 78.430345 
L 216.757957 98.879248 
L 216.910215 92.062947 
L 217.062473 105.695549 
L 217.214731 98.879248 
L 217.366989 64.797743 
L 217.519247 64.797743 
L 217.671505 57.981442 
L 217.823763 98.879248 
L 217.976021 44.34884 
L 218.128278 112.51185 
L 218.280536 112.51185 
L 218.432794 139.777053 
L 218.73731 71.614044 
L 218.889568 51.165141 
L 219.041826 78.430345 
L 219.194084 132.960752 
L 219.346342 51.165141 
L 219.4986 71.614044 
L 219.650858 51.165141 
L 219.803116 92.062947 
L 219.955374 71.614044 
L 220.25989 105.695549 
L 220.412148 78.430345 
L 220.564406 132.960752 
L 220.716664 146.593354 
L 221.021179 44.34884 
L 221.173437 78.430345 
L 221.325695 57.981442 
L 221.477953 98.879248 
L 221.934727 64.797743 
L 222.086985 64.797743 
L 222.239243 37.532539 
L 222.391501 71.614044 
L 222.543759 71.614044 
L 222.696017 112.51185 
L 222.848275 51.165141 
L 223.000533 112.51185 
L 223.152791 92.062947 
L 223.305049 30.716238 
L 223.457307 85.246646 
L 223.609565 57.981442 
L 223.91408 85.246646 
L 224.066338 112.51185 
L 224.218596 78.430345 
L 224.370854 71.614044 
L 224.523112 44.34884 
L 224.67537 92.062947 
L 224.827628 92.062947 
L 224.979886 57.981442 
L 225.132144 78.430345 
L 225.284402 132.960752 
L 225.588918 37.532539 
L 225.741176 85.246646 
L 225.893434 71.614044 
L 226.045692 44.34884 
L 226.19795 37.532539 
L 226.654724 85.246646 
L 226.806981 78.430345 
L 226.959239 78.430345 
L 227.111497 71.614044 
L 227.263755 78.430345 
L 227.416013 112.51185 
L 227.720529 51.165141 
L 227.872787 98.879248 
L 228.177303 57.981442 
L 228.329561 139.777053 
L 228.481819 57.981442 
L 228.634077 51.165141 
L 228.786335 85.246646 
L 228.938593 92.062947 
L 229.090851 160.225956 
L 229.243109 37.532539 
L 229.395367 71.614044 
L 229.547625 71.614044 
L 229.699882 105.695549 
L 230.004398 78.430345 
L 230.308914 78.430345 
L 230.461172 139.777053 
L 230.765688 64.797743 
L 230.917946 112.51185 
L 231.222462 57.981442 
L 231.37472 98.879248 
L 231.526978 85.246646 
L 231.679236 105.695549 
L 231.831494 71.614044 
L 231.983752 64.797743 
L 232.288268 92.062947 
L 232.440526 44.34884 
L 232.592783 132.960752 
L 232.897299 51.165141 
L 233.354073 85.246646 
L 233.506331 78.430345 
L 233.810847 51.165141 
L 233.963105 98.879248 
L 234.115363 71.614044 
L 234.267621 78.430345 
L 234.419879 78.430345 
L 234.572137 44.34884 
L 234.724395 98.879248 
L 234.876653 78.430345 
L 235.028911 85.246646 
L 235.181169 78.430345 
L 235.333427 51.165141 
L 235.637942 112.51185 
L 235.7902 57.981442 
L 236.094716 119.32815 
L 236.246974 57.981442 
L 236.399232 112.51185 
L 236.703748 92.062947 
L 236.856006 37.532539 
L 237.008264 85.246646 
L 237.160522 85.246646 
L 237.31278 98.879248 
L 237.465038 71.614044 
L 237.769554 126.144451 
L 237.921812 37.532539 
L 238.378585 126.144451 
L 238.530843 37.532539 
L 238.835359 92.062947 
L 238.987617 85.246646 
L 239.139875 64.797743 
L 239.292133 64.797743 
L 239.444391 71.614044 
L 239.596649 112.51185 
L 239.748907 78.430345 
L 239.901165 71.614044 
L 240.205681 119.32815 
L 240.357939 57.981442 
L 240.510197 92.062947 
L 240.662455 44.34884 
L 240.814713 64.797743 
L 240.966971 57.981442 
L 241.119229 78.430345 
L 241.271486 71.614044 
L 241.423744 112.51185 
L 241.576002 57.981442 
L 241.72826 98.879248 
L 241.880518 44.34884 
L 242.337292 105.695549 
L 242.48955 51.165141 
L 242.794066 85.246646 
L 242.946324 112.51185 
L 243.098582 105.695549 
L 243.25084 64.797743 
L 243.403098 105.695549 
L 243.555356 71.614044 
L 243.707614 98.879248 
L 243.859872 64.797743 
L 244.01213 146.593354 
L 244.164387 78.430345 
L 244.316645 126.144451 
L 244.468903 51.165141 
L 244.621161 85.246646 
L 244.773419 78.430345 
L 244.925677 44.34884 
L 245.077935 44.34884 
L 245.382451 98.879248 
L 245.534709 78.430345 
L 245.686967 78.430345 
L 245.839225 98.879248 
L 246.143741 71.614044 
L 246.295999 85.246646 
L 246.448257 119.32815 
L 246.600515 71.614044 
L 246.752773 98.879248 
L 246.90503 64.797743 
L 247.209546 92.062947 
L 247.361804 64.797743 
L 247.514062 92.062947 
L 247.66632 92.062947 
L 247.970836 64.797743 
L 248.123094 51.165141 
L 248.275352 92.062947 
L 248.42761 44.34884 
L 248.579868 37.532539 
L 248.732126 92.062947 
L 248.884384 51.165141 
L 249.036642 71.614044 
L 249.1889 71.614044 
L 249.341158 98.879248 
L 249.493416 78.430345 
L 249.797931 92.062947 
L 249.950189 71.614044 
L 250.102447 119.32815 
L 250.254705 51.165141 
L 250.406963 44.34884 
L 250.559221 64.797743 
L 250.711479 37.532539 
L 250.863737 98.879248 
L 251.168253 64.797743 
L 251.320511 85.246646 
L 251.472769 78.430345 
L 251.625027 78.430345 
L 251.777285 44.34884 
L 251.929543 78.430345 
L 252.081801 85.246646 
L 252.386317 44.34884 
L 252.84309 92.062947 
L 252.995348 51.165141 
L 253.147606 71.614044 
L 253.299864 57.981442 
L 253.452122 64.797743 
L 253.908896 44.34884 
L 254.061154 78.430345 
L 254.36567 92.062947 
L 254.517928 57.981442 
L 254.974702 98.879248 
L 255.12696 37.532539 
L 255.279218 85.246646 
L 255.431476 51.165141 
L 255.583733 71.614044 
L 255.735991 64.797743 
L 255.888249 71.614044 
L 256.040507 57.981442 
L 256.192765 57.981442 
L 256.345023 85.246646 
L 256.497281 30.716238 
L 256.649539 44.34884 
L 256.801797 132.960752 
L 256.954055 71.614044 
L 257.106313 98.879248 
L 257.258571 105.695549 
L 257.410829 51.165141 
L 257.563087 44.34884 
L 257.715345 112.51185 
L 257.867603 57.981442 
L 258.019861 85.246646 
L 258.324377 44.34884 
L 258.476634 98.879248 
L 258.78115 51.165141 
L 258.933408 78.430345 
L 259.085666 64.797743 
L 259.237924 71.614044 
L 259.390182 98.879248 
L 259.54244 78.430345 
L 259.694698 78.430345 
L 259.846956 71.614044 
L 259.999214 71.614044 
L 260.151472 44.34884 
L 260.30373 98.879248 
L 260.455988 78.430345 
L 260.608246 126.144451 
L 260.760504 105.695549 
L 260.912762 57.981442 
L 261.06502 78.430345 
L 261.369535 37.532539 
L 261.521793 57.981442 
L 261.674051 51.165141 
L 261.826309 132.960752 
L 261.978567 57.981442 
L 262.130825 105.695549 
L 262.283083 78.430345 
L 262.435341 85.246646 
L 262.587599 71.614044 
L 262.739857 92.062947 
L 262.892115 92.062947 
L 263.044373 78.430345 
L 263.196631 85.246646 
L 263.348889 98.879248 
L 263.501147 71.614044 
L 263.653405 23.899937 
L 263.805663 85.246646 
L 263.957921 92.062947 
L 264.110179 57.981442 
L 264.262436 105.695549 
L 264.414694 98.879248 
L 264.71921 51.165141 
L 264.871468 105.695549 
L 265.175984 85.246646 
L 265.328242 51.165141 
L 265.4805 44.34884 
L 265.632758 92.062947 
L 265.937274 51.165141 
L 266.089532 92.062947 
L 266.24179 44.34884 
L 266.394048 85.246646 
L 266.546306 51.165141 
L 266.698564 51.165141 
L 266.850822 105.695549 
L 267.00308 51.165141 
L 267.155337 51.165141 
L 267.307595 71.614044 
L 267.459853 71.614044 
L 267.612111 98.879248 
L 267.764369 71.614044 
L 268.068885 85.246646 
L 268.221143 71.614044 
L 268.373401 71.614044 
L 268.525659 51.165141 
L 268.830175 112.51185 
L 268.982433 112.51185 
L 269.134691 85.246646 
L 269.286949 92.062947 
L 269.439207 71.614044 
L 269.591465 78.430345 
L 269.743723 112.51185 
L 269.895981 37.532539 
L 270.048238 119.32815 
L 270.200496 30.716238 
L 270.505012 98.879248 
L 270.65727 71.614044 
L 270.809528 105.695549 
L 270.961786 57.981442 
L 271.114044 92.062947 
L 271.266302 44.34884 
L 271.41856 51.165141 
L 271.570818 51.165141 
L 271.723076 64.797743 
L 271.875334 105.695549 
L 272.027592 23.899937 
L 272.17985 85.246646 
L 272.332108 85.246646 
L 272.636624 119.32815 
L 272.788882 71.614044 
L 272.941139 78.430345 
L 273.093397 64.797743 
L 273.245655 78.430345 
L 273.397913 78.430345 
L 273.550171 85.246646 
L 273.702429 44.34884 
L 273.854687 71.614044 
L 274.006945 78.430345 
L 274.159203 44.34884 
L 274.311461 64.797743 
L 274.463719 44.34884 
L 274.615977 57.981442 
L 274.768235 98.879248 
L 274.920493 64.797743 
L 275.072751 105.695549 
L 275.529525 57.981442 
L 275.681783 78.430345 
L 275.83404 71.614044 
L 275.986298 44.34884 
L 276.138556 92.062947 
L 276.290814 37.532539 
L 276.443072 92.062947 
L 276.59533 78.430345 
L 276.747588 85.246646 
L 277.204362 44.34884 
L 277.508878 105.695549 
L 277.661136 57.981442 
L 277.813394 139.777053 
L 277.965652 85.246646 
L 278.11791 92.062947 
L 278.422426 71.614044 
L 278.574684 23.899937 
L 278.726941 92.062947 
L 278.879199 51.165141 
L 279.031457 57.981442 
L 279.183715 85.246646 
L 279.335973 44.34884 
L 279.640489 105.695549 
L 279.945005 17.083636 
L 280.097263 92.062947 
L 280.249521 85.246646 
L 280.401779 92.062947 
L 280.554037 51.165141 
L 280.706295 57.981442 
L 280.858553 71.614044 
L 281.010811 98.879248 
L 281.315327 64.797743 
L 281.619842 98.879248 
L 281.7721 78.430345 
L 281.924358 78.430345 
L 282.076616 98.879248 
L 282.228874 92.062947 
L 282.381132 37.532539 
L 282.53339 85.246646 
L 282.685648 78.430345 
L 282.837906 64.797743 
L 283.29468 105.695549 
L 283.446938 105.695549 
L 283.599196 98.879248 
L 283.903712 119.32815 
L 284.208228 37.532539 
L 284.360485 85.246646 
L 284.512743 92.062947 
L 284.665001 85.246646 
L 284.817259 23.899937 
L 284.969517 98.879248 
L 285.121775 85.246646 
L 285.274033 85.246646 
L 285.426291 64.797743 
L 285.578549 71.614044 
L 285.883065 98.879248 
L 286.035323 64.797743 
L 286.187581 92.062947 
L 286.339839 71.614044 
L 286.644355 71.614044 
L 286.796613 78.430345 
L 286.948871 57.981442 
L 287.101129 64.797743 
L 287.253386 98.879248 
L 287.405644 85.246646 
L 287.557902 105.695549 
L 287.862418 17.083636 
L 288.166934 78.430345 
L 288.319192 64.797743 
L 288.775966 105.695549 
L 288.928224 78.430345 
L 289.080482 119.32815 
L 289.23274 98.879248 
L 289.384998 51.165141 
L 289.537256 78.430345 
L 289.689514 71.614044 
L 289.99403 44.34884 
L 290.146287 92.062947 
L 290.298545 92.062947 
L 290.450803 64.797743 
L 290.603061 71.614044 
L 290.755319 51.165141 
L 290.907577 78.430345 
L 291.059835 71.614044 
L 291.212093 85.246646 
L 291.364351 71.614044 
L 291.516609 30.716238 
L 291.821125 78.430345 
L 291.973383 64.797743 
L 292.125641 92.062947 
L 292.277899 51.165141 
L 292.430157 64.797743 
L 292.582415 105.695549 
L 292.734673 105.695549 
L 292.886931 78.430345 
L 293.039188 112.51185 
L 293.191446 64.797743 
L 293.343704 78.430345 
L 293.495962 71.614044 
L 293.64822 71.614044 
L 293.800478 105.695549 
L 294.104994 57.981442 
L 294.257252 85.246646 
L 294.40951 44.34884 
L 294.561768 64.797743 
L 294.714026 30.716238 
L 295.018542 126.144451 
L 295.1708 98.879248 
L 295.323058 132.960752 
L 295.475316 51.165141 
L 295.627574 64.797743 
L 295.779832 64.797743 
L 295.932089 119.32815 
L 296.236605 78.430345 
L 296.693379 112.51185 
L 296.845637 92.062947 
L 296.997895 92.062947 
L 297.150153 51.165141 
L 297.606927 85.246646 
L 297.759185 71.614044 
L 297.911443 92.062947 
L 298.063701 78.430345 
L 298.215959 51.165141 
L 298.368217 71.614044 
L 298.520475 71.614044 
L 298.672733 78.430345 
L 298.82499 78.430345 
L 298.977248 153.409655 
L 299.129506 167.042257 
L 299.281764 92.062947 
L 299.58628 119.32815 
L 299.738538 57.981442 
L 300.043054 78.430345 
L 300.195312 64.797743 
L 300.34757 105.695549 
L 300.499828 64.797743 
L 300.652086 126.144451 
L 300.804344 71.614044 
L 300.956602 78.430345 
L 301.10886 57.981442 
L 301.413376 92.062947 
L 301.565634 85.246646 
L 301.717891 37.532539 
L 301.870149 105.695549 
L 302.022407 71.614044 
L 302.174665 98.879248 
L 302.326923 71.614044 
L 302.479181 112.51185 
L 302.631439 78.430345 
L 302.783697 105.695549 
L 302.935955 71.614044 
L 303.088213 112.51185 
L 303.544987 37.532539 
L 303.697245 112.51185 
L 304.001761 57.981442 
L 304.154019 37.532539 
L 304.306277 71.614044 
L 304.458535 51.165141 
L 304.915308 85.246646 
L 305.067566 78.430345 
L 305.219824 78.430345 
L 305.372082 64.797743 
L 305.676598 126.144451 
L 305.981114 78.430345 
L 306.133372 71.614044 
L 306.28563 44.34884 
L 306.437888 51.165141 
L 306.590146 119.32815 
L 306.742404 112.51185 
L 307.04692 85.246646 
L 307.199178 105.695549 
L 307.351436 57.981442 
L 307.503693 85.246646 
L 307.655951 51.165141 
L 307.808209 112.51185 
L 307.960467 64.797743 
L 308.112725 85.246646 
L 308.264983 78.430345 
L 308.417241 78.430345 
L 308.569499 51.165141 
L 308.721757 98.879248 
L 308.874015 78.430345 
L 309.026273 78.430345 
L 309.178531 64.797743 
L 309.330789 78.430345 
L 309.483047 44.34884 
L 309.787563 85.246646 
L 309.939821 98.879248 
L 310.092079 85.246646 
L 310.244337 112.51185 
L 310.548852 78.430345 
L 310.70111 51.165141 
L 310.853368 119.32815 
L 311.005626 71.614044 
L 311.157884 71.614044 
L 311.310142 98.879248 
L 311.4624 51.165141 
L 311.614658 92.062947 
L 311.766916 51.165141 
L 311.919174 105.695549 
L 312.071432 57.981442 
L 312.22369 78.430345 
L 312.375948 51.165141 
L 312.528206 92.062947 
L 312.680464 78.430345 
L 312.98498 105.695549 
L 313.289495 23.899937 
L 313.441753 44.34884 
L 313.594011 37.532539 
L 313.898527 112.51185 
L 314.050785 51.165141 
L 314.203043 119.32815 
L 314.507559 57.981442 
L 314.659817 173.858558 
L 314.812075 71.614044 
L 314.964333 78.430345 
L 315.116591 51.165141 
L 315.268849 57.981442 
L 315.573365 85.246646 
L 315.877881 30.716238 
L 316.182396 112.51185 
L 316.334654 85.246646 
L 316.486912 98.879248 
L 316.791428 57.981442 
L 316.943686 85.246646 
L 317.095944 92.062947 
L 317.248202 37.532539 
L 317.40046 98.879248 
L 317.552718 85.246646 
L 317.704976 51.165141 
L 317.857234 126.144451 
L 318.16175 71.614044 
L 318.314008 92.062947 
L 318.466266 85.246646 
L 318.618524 126.144451 
L 318.770782 78.430345 
L 318.92304 98.879248 
L 319.075297 85.246646 
L 319.227555 132.960752 
L 319.379813 85.246646 
L 319.684329 105.695549 
L 319.836587 37.532539 
L 320.293361 78.430345 
L 320.445619 51.165141 
L 320.597877 78.430345 
L 320.750135 44.34884 
L 320.902393 85.246646 
L 321.054651 92.062947 
L 321.206909 51.165141 
L 321.511425 92.062947 
L 321.663683 64.797743 
L 321.968198 119.32815 
L 322.120456 64.797743 
L 322.272714 71.614044 
L 322.424972 119.32815 
L 322.57723 112.51185 
L 322.729488 71.614044 
L 322.881746 92.062947 
L 323.034004 92.062947 
L 323.186262 64.797743 
L 323.33852 71.614044 
L 323.643036 57.981442 
L 323.795294 78.430345 
L 323.947552 71.614044 
L 324.09981 57.981442 
L 324.404326 153.409655 
L 324.861099 85.246646 
L 325.013357 98.879248 
L 325.317873 57.981442 
L 325.470131 64.797743 
L 325.622389 78.430345 
L 325.926905 51.165141 
L 326.079163 92.062947 
L 326.231421 92.062947 
L 326.383679 30.716238 
L 326.535937 126.144451 
L 326.688195 44.34884 
L 326.840453 44.34884 
L 326.992711 98.879248 
L 327.144969 64.797743 
L 327.297227 92.062947 
L 327.449485 78.430345 
L 327.601742 85.246646 
L 327.754 85.246646 
L 327.906258 92.062947 
L 328.058516 44.34884 
L 328.210774 105.695549 
L 328.363032 119.32815 
L 328.667548 57.981442 
L 328.819806 119.32815 
L 328.972064 51.165141 
L 329.124322 98.879248 
L 329.27658 71.614044 
L 329.428838 126.144451 
L 329.581096 64.797743 
L 329.733354 105.695549 
L 329.885612 71.614044 
L 330.03787 71.614044 
L 330.190128 51.165141 
L 330.342386 64.797743 
L 330.494643 119.32815 
L 330.646901 92.062947 
L 330.799159 105.695549 
L 330.951417 64.797743 
L 331.255933 85.246646 
L 331.408191 57.981442 
L 331.712707 98.879248 
L 331.864965 92.062947 
L 332.017223 57.981442 
L 332.169481 78.430345 
L 332.321739 78.430345 
L 332.473997 92.062947 
L 332.626255 57.981442 
L 332.778513 71.614044 
L 332.930771 57.981442 
L 333.083029 85.246646 
L 333.235287 85.246646 
L 333.539802 57.981442 
L 333.69206 139.777053 
L 333.996576 44.34884 
L 334.148834 51.165141 
L 334.301092 78.430345 
L 334.45335 64.797743 
L 334.605608 30.716238 
L 334.757866 98.879248 
L 334.910124 57.981442 
L 335.062382 85.246646 
L 335.21464 85.246646 
L 335.519156 44.34884 
L 335.823672 78.430345 
L 335.97593 98.879248 
L 336.128188 57.981442 
L 336.432703 85.246646 
L 336.584961 85.246646 
L 336.737219 64.797743 
L 336.889477 71.614044 
L 337.041735 44.34884 
L 337.193993 153.409655 
L 337.346251 71.614044 
L 337.498509 78.430345 
L 337.650767 98.879248 
L 337.955283 37.532539 
L 338.107541 119.32815 
L 338.259799 71.614044 
L 338.412057 92.062947 
L 338.564315 57.981442 
L 338.716573 57.981442 
L 339.173346 105.695549 
L 339.325604 105.695549 
L 339.477862 57.981442 
L 339.63012 98.879248 
L 339.782378 92.062947 
L 339.934636 44.34884 
L 340.086894 51.165141 
L 340.239152 78.430345 
L 340.39141 85.246646 
L 340.543668 71.614044 
L 340.695926 78.430345 
L 340.848184 51.165141 
L 341.304958 98.879248 
L 341.457216 64.797743 
L 341.609474 78.430345 
L 341.761732 112.51185 
L 341.91399 92.062947 
L 342.066247 51.165141 
L 342.218505 105.695549 
L 342.370763 64.797743 
L 342.523021 105.695549 
L 342.675279 187.49116 
L 342.827537 105.695549 
L 342.979795 98.879248 
L 343.132053 119.32815 
L 343.284311 71.614044 
L 343.436569 98.879248 
L 343.588827 105.695549 
L 343.893343 85.246646 
L 344.045601 92.062947 
L 344.197859 119.32815 
L 344.502375 105.695549 
L 344.654633 92.062947 
L 344.806891 105.695549 
L 344.959148 78.430345 
L 345.111406 119.32815 
L 345.263664 64.797743 
L 345.415922 105.695549 
L 345.56818 64.797743 
L 345.720438 112.51185 
L 345.872696 105.695549 
L 346.177212 51.165141 
L 346.32947 71.614044 
L 346.481728 64.797743 
L 346.633986 85.246646 
L 346.786244 78.430345 
L 346.938502 57.981442 
L 347.09076 85.246646 
L 347.243018 51.165141 
L 347.395276 71.614044 
L 347.547534 57.981442 
L 348.004307 92.062947 
L 348.156565 71.614044 
L 348.308823 139.777053 
L 348.613339 57.981442 
L 348.765597 112.51185 
L 348.917855 78.430345 
L 349.070113 85.246646 
L 349.222371 85.246646 
L 349.374629 30.716238 
L 349.679145 92.062947 
L 349.831403 119.32815 
L 349.983661 78.430345 
L 350.135919 85.246646 
L 350.288177 71.614044 
L 350.592693 71.614044 
L 350.74495 98.879248 
L 350.897208 57.981442 
L 351.049466 78.430345 
L 351.201724 51.165141 
L 351.353982 98.879248 
L 351.50624 78.430345 
L 351.658498 119.32815 
L 351.810756 112.51185 
L 351.963014 71.614044 
L 352.115272 92.062947 
L 352.26753 85.246646 
L 352.419788 92.062947 
L 352.572046 57.981442 
L 352.724304 112.51185 
L 352.876562 51.165141 
L 353.02882 98.879248 
L 353.333336 85.246646 
L 353.485594 132.960752 
L 353.637851 23.899937 
L 353.790109 98.879248 
L 353.942367 105.695549 
L 354.094625 57.981442 
L 354.246883 119.32815 
L 354.399141 51.165141 
L 354.551399 146.593354 
L 354.703657 119.32815 
L 354.855915 71.614044 
L 355.008173 85.246646 
L 355.160431 78.430345 
L 355.312689 119.32815 
L 355.769463 57.981442 
L 356.073979 105.695549 
L 356.226237 92.062947 
L 356.378495 92.062947 
L 356.530752 98.879248 
L 356.68301 92.062947 
L 356.987526 44.34884 
L 357.139784 85.246646 
L 357.4443 57.981442 
L 357.596558 119.32815 
L 357.748816 132.960752 
L 357.901074 105.695549 
L 358.053332 105.695549 
L 358.20559 98.879248 
L 358.357848 126.144451 
L 358.510106 78.430345 
L 358.662364 105.695549 
L 358.814622 112.51185 
L 358.96688 71.614044 
L 359.119138 112.51185 
L 359.271395 71.614044 
L 359.423653 98.879248 
L 359.575911 78.430345 
L 359.728169 78.430345 
L 359.880427 173.858558 
L 360.032685 57.981442 
L 360.184943 112.51185 
L 360.184943 112.51185 
" style="fill:none;stroke:#1f77b4;stroke-linecap:square;stroke-width:1.5;"/>
   </g>
   <g id="patch_3">
    <path d="M 40.603125 224.64 
L 40.603125 7.2 
" style="fill:none;stroke:#000000;stroke-linecap:square;stroke-linejoin:miter;stroke-width:0.8;"/>
   </g>
   <g id="patch_4">
    <path d="M 375.403125 224.64 
L 375.403125 7.2 
" style="fill:none;stroke:#000000;stroke-linecap:square;stroke-linejoin:miter;stroke-width:0.8;"/>
   </g>
   <g id="patch_5">
    <path d="M 40.603125 224.64 
L 375.403125 224.64 
" style="fill:none;stroke:#000000;stroke-linecap:square;stroke-linejoin:miter;stroke-width:0.8;"/>
   </g>
   <g id="patch_6">
    <path d="M 40.603125 7.2 
L 375.403125 7.2 
" style="fill:none;stroke:#000000;stroke-linecap:square;stroke-linejoin:miter;stroke-width:0.8;"/>
   </g>
  </g>
 </g>
 <defs>
  <clipPath id="p514bcb67ea">
   <rect height="217.44" width="334.8" x="40.603125" y="7.2"/>
  </clipPath>
 </defs>
</svg>