<svg id="Layer_1" data-name="Layer 1" xmlns="http://www.w3.org/2000/svg" viewBox="0 0 450.43 216.07"><defs><style>.cls-1,.cls-2{fill:none;stroke-linecap:round;stroke-linejoin:round;stroke-width:18.06px;}.cls-1{stroke:#28377c;}.cls-2{stroke:#3c69b2;}</style></defs><title>Suen-BSuen</title><polygon class="cls-1" points="9.03 184.89 112.22 184.89 9.03 96.5 9.03 184.89"/><polygon class="cls-1" points="9.03 97.42 112.22 97.42 9.03 9.03 9.03 97.42"/><polyline class="cls-2" points="68.23 206.65 171.43 206.65 68.23 118.26"/><polyline class="cls-1" points="171.43 118.26 171.43 206.65 250.43 206.65 250.43 121.44"/><line class="cls-2" x1="68.23" y1="118.26" x2="171.43" y2="118.26"/><line class="cls-2" x1="250.43" y1="120.28" x2="292.95" y2="120.28"/><path class="cls-2" d="M392.32,342.38c-92.31.15-77.26.15-77.26.15" transform="translate(-62.79 -179.93)"/><polyline class="cls-2" points="250.43 206.65 342.74 206.65 368.83 206.65"/><polyline class="cls-1" points="368.83 207.04 368.83 121.83 441.39 207.04 441.39 121.83"/></svg>